<svg xmlns="http://www.w3.org/2000/svg" width="1854" height="20" viewBox="0 0 1854 20">
  <g id="Grupo_321" data-name="Grupo 321" transform="translate(-61 -895)">
    <g id="Grupo_254" data-name="Grupo 254" transform="translate(61 895)">
      <text id="IMPRESIÓN_DIGITAL" data-name="IMPRESIÓN DIGITAL" transform="translate(0 16)" font-size="17" font-family="Montserrat" font-weight="700"><tspan x="0" y="0">IMPRESIÓN DIGITAL</tspan></text>
    </g>
    <g id="Grupo_255" data-name="Grupo 255" transform="translate(306.534 895)">
      <text id="LETREROS" transform="translate(0.467 16)" font-size="17" font-family="Montserrat" font-weight="700"><tspan x="0" y="0">LETREROS</tspan></text>
    </g>
    <g id="Grupo_314" data-name="Grupo 314" transform="translate(631.964 895)">
      <text id="PLOTTER" transform="translate(0.037 16)" font-size="17" font-family="Montserrat" font-weight="700"><tspan x="0" y="0">PLOTTER</tspan></text>
    </g>
    <g id="Grupo_315" data-name="Grupo 315" transform="translate(777.14 895)">
      <text id="VINILOS_ADHESIVOS" data-name="VINILOS ADHESIVOS" transform="translate(-0.141 16)" font-size="17" font-family="Montserrat" font-weight="700"><tspan x="0" y="0">VINILOS ADHESIVOS</tspan></text>
    </g>
    <g id="Grupo_316" data-name="Grupo 316" transform="translate(1028.52 895)">
      <text id="STICKERS" transform="translate(0.48 16)" font-size="17" font-family="Montserrat" font-weight="700"><tspan x="0" y="0">STICKERS</tspan></text>
    </g>
    <g id="Grupo_317" data-name="Grupo 317" transform="translate(1178.569 895)">
      <text id="TARJETAS_DE_PRESENTACIÓN" data-name="TARJETAS DE PRESENTACIÓN" transform="translate(0.432 16)" font-size="17" font-family="Montserrat" font-weight="700"><tspan x="0" y="0">TARJETAS DE PRESENTACIÓN</tspan></text>
    </g>
    <g id="Grupo_318" data-name="Grupo 318" transform="translate(1513.742 895)">
      <text id="CARPETAS" transform="translate(0.258 16)" font-size="17" font-family="Montserrat" font-weight="700"><tspan x="0" y="0">CARPETAS</tspan></text>
    </g>
    <g id="Grupo_319" data-name="Grupo 319" transform="translate(1674.508 895)">
      <text id="PACKAGINGS" transform="translate(0.492 16)" font-size="17" font-family="Montserrat" font-weight="700"><tspan x="0" y="0">PACKAGINGS</tspan></text>
    </g>
    <g id="Grupo_320" data-name="Grupo 320" transform="translate(1857.684 895)">
      <text id="Y_MÁS" data-name="Y MÁS" transform="translate(0.316 16)" font-size="17" font-family="Montserrat" font-weight="700"><tspan x="0" y="0">Y MÁS</tspan></text>
    </g>
    <g id="Grupo_256" data-name="Grupo 256" transform="translate(465.351 895)">
      <text id="PENDONES" transform="translate(-0.352 16)" font-size="17" font-family="Montserrat" font-weight="700"><tspan x="0" y="0">PENDONES</tspan></text>
    </g>
    <circle id="Elipse_7" data-name="Elipse 7" cx="5.5" cy="5.5" r="5.5" transform="translate(270 900)" fill="#29b4d5"/>
    <circle id="Elipse_9" data-name="Elipse 9" cx="5.5" cy="5.5" r="5.5" transform="translate(596 900)" fill="#29b4d5"/>
    <circle id="Elipse_10" data-name="Elipse 10" cx="5.5" cy="5.5" r="5.5" transform="translate(741 900)" fill="#29b4d5"/>
    <circle id="Elipse_11" data-name="Elipse 11" cx="5.5" cy="5.5" r="5.5" transform="translate(992 900)" fill="#29b4d5"/>
    <ellipse id="Elipse_12" data-name="Elipse 12" cx="5" cy="5.5" rx="5" ry="5.5" transform="translate(1143 900)" fill="#29b4d5"/>
    <ellipse id="Elipse_13" data-name="Elipse 13" cx="5" cy="5.5" rx="5" ry="5.5" transform="translate(1478 900)" fill="#29b4d5"/>
    <circle id="Elipse_14" data-name="Elipse 14" cx="5.5" cy="5.5" r="5.5" transform="translate(1638 900)" fill="#29b4d5"/>
    <ellipse id="Elipse_15" data-name="Elipse 15" cx="5" cy="5.5" rx="5" ry="5.5" transform="translate(1822 900)" fill="#29b4d5"/>
    <circle id="Elipse_8" data-name="Elipse 8" cx="5.5" cy="5.5" r="5.5" transform="translate(429 900)" fill="#29b4d5"/>
  </g>
</svg>
